<?xml version="1.0" encoding="UTF-8" standalone="no"?>
<svg width="81px" height="81px" viewBox="0 0 81 81" version="1.1" xmlns="http://www.w3.org/2000/svg" xmlns:xlink="http://www.w3.org/1999/xlink">
    <!-- Generator: Sketch 43.2 (39069) - http://www.bohemiancoding.com/sketch -->
    <title>icone-autonomia-velocidade</title>
    <desc>Created with Sketch.</desc>
    <defs>
        <polygon id="path-1" points="8.55956094 1.71884925 11.2406061 7.02865462 17.1189934 7.93766638 12.8975356 12.1282928 13.8495828 18 8.55956094 15.2801587 3.26941056 18 4.22145778 12.1282928 0 7.93766638 5.87851581 7.02865462"/>
    </defs>
    <g id="Empresas" stroke="none" stroke-width="1" fill="none" fill-rule="evenodd">
        <g id="[L]-Sou-empresa" transform="translate(-453.000000, -880.000000)">
            <g id="vantagens" transform="translate(0.000000, 664.000000)">
                <g id="lista" transform="translate(70.000000, 216.000000)">
                    <g id="valor" transform="translate(293.000000, 0.000000)">
                        <g id="icone-autonomia-velocidade" transform="translate(90.000000, 0.000000)">
                            <rect id="area" x="0" y="0" width="80" height="80"/>
                            <g id="ilustra" transform="translate(4.000000, 0.000000)">
                                <g id="lupa" transform="translate(10.000000, 14.000000)">
                                    <path d="M46.6770855,38.1918041 L64.3915368,55.9062554 C66.7309488,58.2456675 66.7231542,62.0463984 64.3847763,64.3847763 C62.0416306,66.7279221 58.2426723,66.7279537 55.9062554,64.3915368 L38.1918041,46.6770855 C41.6864345,44.612103 44.612103,41.6864345 46.6770855,38.1918041 Z" id="Combined-Shape" fill="#FFFFFF"/>
                                    <path d="M63.6411851,65.0173552 C63.3837368,64.8317029 63.1378133,64.6230947 62.9062554,64.3915368 L42.211766,43.6970474 C43.9572712,42.0971735 45.4653589,40.2424445 46.6770855,38.1918041 L64.3915368,55.9062554 C66.7309488,58.2456675 66.7231542,62.0463984 64.3847763,64.3847763 C64.1504943,64.6190583 63.9016582,64.8299157 63.6411851,65.0173552 Z" id="Combined-Shape" fill="#E2EFF1"/>
                                    <path d="M46.8579389,39.7868711 L63.68443,56.6133622 C65.6312992,58.5602314 65.6275446,61.7277945 63.6776695,63.6776695 C61.7259086,65.6294304 58.560114,65.6311818 56.6133622,63.68443 L39.7868711,46.8579389 C42.5919525,45.0002297 45.0002297,42.5919525 46.8579388,39.7868707 L46.8579389,39.7868711 Z" id="Combined-Shape" stroke="#41A9B9" stroke-width="2"/>
                                    <circle id="Oval-5" fill="#FFFFFF" cx="26" cy="26" r="26"/>
                                    <circle id="Oval-5" fill="#E2EFF1" cx="27.5" cy="27.5" r="22.5"/>
                                    <circle id="Oval-5" stroke="#41A9B9" stroke-width="2" cx="26" cy="26" r="25"/>
                                </g>
                                <g id="brilho" fill="#41A9B9">
                                    <rect id="Rectangle-5" x="35" y="0" width="2" height="10" rx="1"/>
                                    <rect id="Rectangle-5" x="35" y="70" width="2" height="10" rx="1"/>
                                    <rect id="Rectangle-5" transform="translate(1.000000, 40.000000) rotate(90.000000) translate(-1.000000, -40.000000) " x="0" y="35" width="2" height="10" rx="1"/>
                                    <rect id="Rectangle-5" transform="translate(71.000000, 40.000000) rotate(90.000000) translate(-71.000000, -40.000000) " x="70" y="35" width="2" height="10" rx="1"/>
                                    <rect id="Rectangle-5" transform="translate(62.242641, 14.242641) rotate(45.000000) translate(-62.242641, -14.242641) " x="61.2426407" y="9.24264069" width="2" height="10" rx="1"/>
                                    <rect id="Rectangle-5" transform="translate(10.242641, 14.242641) scale(-1, 1) rotate(45.000000) translate(-10.242641, -14.242641) " x="9.24264069" y="9.24264069" width="2" height="10" rx="1"/>
                                    <rect id="Rectangle-5" transform="translate(10.242641, 66.242641) rotate(45.000000) translate(-10.242641, -66.242641) " x="9.24264069" y="61.2426407" width="2" height="10" rx="1"/>
                                </g>
                                <g id="pessoa" transform="translate(23.000000, 25.000000)">
                                    <circle id="Oval" fill="#FFFFFF" cx="13" cy="7" r="7"/>
                                    <circle id="Oval" fill="#E2EFF1" cx="15" cy="9" r="5"/>
                                    <circle id="Oval" stroke="#41A9B9" stroke-width="2" cx="13" cy="7" r="6"/>
                                    <path d="M13.0775321,16 C23.2700544,16 26,17.8428548 26,26 C18.4812012,26 6.89582171,26 0,26 C0,17.6959635 2.88500977,16 13.0775321,16 Z" id="Rectangle-15" fill="#FFFFFF"/>
                                    <path d="M25.380429,20.9198611 C23.3958506,20.2376131 20.6567915,20 16.9407786,20 C8.52871523,20 5.01901434,21.1205893 4,26 C10.8832801,26 19.8023176,26 26,26 C26,23.9212071 25.8199861,22.2524961 25.380429,20.9198611 Z" id="Combined-Shape" fill="#E2EFF1"/>
                                    <path d="M24.985853,25 C13.025796,25 12.3853853,25 1.01408851,25 C1.21129917,18.3972526 3.55939705,17 13.0775321,17 C22.4575932,17 24.7889594,18.4332606 24.985853,25 L24.985853,25 Z" id="Rectangle-15" stroke="#41A9B9" stroke-width="2"/>
                                </g>
                                <g id="estrela" transform="translate(37.000000, 38.000000)">
                                    <g stroke-linejoin="round">
                                        <use fill="#FFFFFF" fill-rule="evenodd" xlink:href="#path-1"/>
                                        <path stroke="#E2EFF1" stroke-width="2" d="M5.21759238,6.11897007 L-0.152816636,6.94941182 L-2.11006862,7.2520673 L-0.704510411,8.64736003 L3.15205883,12.4757629 L2.28230186,17.8399487 L1.9653232,19.7949 L3.72665122,18.889343 L8.55955539,16.4045871 L13.3923334,18.8893385 L15.1536741,19.794924 L14.8366916,17.8399487 L13.9669346,12.4757629 L17.8235038,8.64736003 L19.2290563,7.25207303 L17.2718133,6.94941232 L11.9015304,6.11897194 L9.45222324,1.26812314 L8.55956094,-0.499793042 L7.66689864,1.26812314 L5.21759238,6.11897007 Z"/>
                                    </g>
                                    <polygon fill="#E2EFF1" points="10.000045 7 11.8793928 10.9135848 16 11.5835707 13.0408603 14.6722662 13.7082223 19 10.000045 16.9953447 6.29177767 19 6.95913972 14.6722662 4 11.5835707 8.12069729 10.9135848"/>
                                    <path d="M8.55956094,3.93749154 L10.3479438,7.47938073 L10.5796817,7.93833731 L11.0877862,8.01690868 L15.0089306,8.62325973 L12.1930252,11.4185991 L11.8281367,11.7808227 L11.9104269,12.288344 L12.5454916,16.205076 L9.01681037,14.3908202 L8.55956649,14.1557303 L8.10232028,14.3908157 L4.57349793,16.2051 L5.20856649,12.288344 L5.29085674,11.7808227 L4.92596819,11.4185991 L2.11006862,8.62326545 L6.03133245,8.01690918 L6.53943924,7.93833917 L6.77117811,7.47938073 L8.55956094,3.93749154 Z" stroke="#41A9B9" stroke-width="2"/>
                                </g>
                            </g>
                        </g>
                    </g>
                </g>
            </g>
        </g>
    </g>
</svg>