<?xml version="1.0" encoding="UTF-8" standalone="no"?>
<svg width="80px" height="80px" viewBox="0 0 80 80" version="1.1" xmlns="http://www.w3.org/2000/svg" xmlns:xlink="http://www.w3.org/1999/xlink">
    <!-- Generator: Sketch 43.2 (39069) - http://www.bohemiancoding.com/sketch -->
    <title>icone-recomendacoes</title>
    <desc>Created with Sketch.</desc>
    <defs>
        <path d="M39.9999656,32.4349887 C42.3157286,29.3867213 46.9472544,29.3867213 49.263109,31.4033775 C51.5789637,33.4200336 51.5789637,37.4533459 49.263109,41.4866583 C47.6419925,44.5116425 43.4736559,47.5366268 39.9999656,49.5532829 C36.5262754,47.5366268 32.3579388,44.5116425 30.7368222,41.4866583 C28.4210593,37.4533459 28.4210593,33.4200336 30.7368222,31.4033775 C33.0526768,29.3867213 37.6842027,29.3867213 39.9999656,32.4349887 Z" id="path-1"/>
    </defs>
    <g id="Empresas" stroke="none" stroke-width="1" fill="none" fill-rule="evenodd">
        <g id="[L]-Sou-empresa" transform="translate(-747.000000, -880.000000)">
            <g id="vantagens" transform="translate(0.000000, 664.000000)">
                <g id="lista" transform="translate(70.000000, 216.000000)">
                    <g id="valor" transform="translate(585.000000, 0.000000)">
                        <g id="icone-recomendacoes" transform="translate(92.000000, 0.000000)">
                            <rect id="area" x="0" y="0" width="80" height="80"/>
                            <g id="ilustra">
                                <g id="vaga" transform="translate(34.000000, 34.000000)">
                                    <circle id="Oval-2" fill="#FFFFFF" cx="23" cy="23" r="23"/>
                                    <circle id="Oval-2" fill="#E2EFF1" cx="25" cy="25" r="20"/>
                                    <circle id="Oval-2" stroke="#41A9B9" stroke-width="2" cx="23" cy="23" r="22"/>
                                    <g id="icon" transform="translate(10.000000, 12.000000)">
                                        <g id="base" transform="translate(1.000000, 12.000000)">
                                            <path d="M24,0 L24,8.31494426 C24,9.24557485 23.1029738,10 21.9950534,10 L2.00494659,10 C0.897645164,10 0,9.24896263 0,8.31626234 L0,0.00782214903" id="Rectangle-6" fill="#FFFFFF"/>
                                            <path d="M24,0 L24,8.31494426 C24,9.24557485 23.2524781,10 22.3292112,10 L5.67078882,10 C4.74803764,10 4,9.24896263 4,8.31626234 L4,0.00782214903" id="Rectangle-6" fill="#E2EFF1"/>
                                            <path d="M23,1.00032598 L23,8.31494426 C23,8.65130037 22.5851917,9 21.9950534,9 L2.00494659,9 C1.4136898,9 1,8.65298544 1,8.31626234 L1,1.00749628 L23,1.00032598 Z" id="Rectangle-6" stroke="#41A9B9" stroke-width="2"/>
                                        </g>
                                        <g id="aba" transform="translate(0.000000, 4.000000)">
                                            <rect id="Rectangle-6" fill="#FFFFFF" x="0" y="0" width="26" height="10" rx="2"/>
                                            <rect id="Rectangle-6" fill="#E2EFF1" x="4" y="4" width="22" height="6" rx="2"/>
                                            <rect id="Rectangle-6" stroke="#41A9B9" stroke-width="2" x="1" y="1" width="24" height="8" rx="2"/>
                                        </g>
                                        <rect id="Rectangle-6" stroke="#41A9B9" stroke-width="2" x="10" y="1" width="6" height="4" rx="2"/>
                                        <rect id="Rectangle-7" fill="#41A9B9" x="11" y="10" width="4" height="6"/>
                                    </g>
                                </g>
                                <g id="pessoa">
                                    <circle id="Oval-2" fill="#FFFFFF" cx="23" cy="23" r="23"/>
                                    <circle id="Oval-2" fill="#E2EFF1" cx="25" cy="25" r="20"/>
                                    <circle id="Oval-2" stroke="#41A9B9" stroke-width="2" cx="23" cy="23" r="22"/>
                                    <g transform="translate(10.000000, 8.000000)">
                                        <circle id="Oval" fill="#FFFFFF" cx="13" cy="7" r="7"/>
                                        <circle id="Oval" fill="#E2EFF1" cx="15" cy="9" r="5"/>
                                        <circle id="Oval" stroke="#41A9B9" stroke-width="2" cx="13" cy="7" r="6"/>
                                        <path d="M13.0775321,16 C23.2700544,16 26,17.8428548 26,26 C18.4812012,26 6.89582171,26 0,26 C0,17.6959635 2.88500977,16 13.0775321,16 Z" id="Rectangle-15" fill="#FFFFFF"/>
                                        <path d="M25.380429,20.9198611 C23.3958506,20.2376131 20.6567915,20 16.9407786,20 C8.52871523,20 5.01901434,21.1205893 4,26 C10.8832801,26 19.8023176,26 26,26 C26,23.9212071 25.8199861,22.2524961 25.380429,20.9198611 Z" id="Combined-Shape" fill="#E2EFF1"/>
                                        <path d="M24.985853,25 C13.025796,25 12.3853853,25 1.01408851,25 C1.21129917,18.3972526 3.55939705,17 13.0775321,17 C22.4575932,17 24.7889594,18.4332606 24.985853,25 L24.985853,25 Z" id="Rectangle-15" stroke="#41A9B9" stroke-width="2"/>
                                    </g>
                                </g>
                                <g id="Fill-1">
                                    <use fill="#FFFFFF" fill-rule="evenodd" xlink:href="#path-1"/>
                                    <path stroke="#FFFFFF" stroke-width="3" d="M39.9999656,30.2928182 C37.0661984,27.8998743 32.4813194,27.8952481 29.7517562,30.2721635 C26.8020459,32.8408856 26.8020459,37.6460609 29.4359903,42.2335427 C31.0021351,45.1573079 34.6994346,48.2105083 39.2468532,50.8505191 L39.9999656,51.2877397 L40.7530781,50.8505191 C45.3004966,48.2105083 48.9977961,45.1573079 50.5852218,42.1951905 C53.1979828,37.6460727 53.1979828,32.8408688 50.248175,30.2721635 C47.5186118,27.8952481 42.9337328,27.8998743 39.9999656,30.2928182 Z"/>
                                </g>
                                <path d="M41.4374114,36.64637 C43.0031691,34.5853436 46.1346847,34.5853436 47.7005044,35.9488662 C49.2663242,37.3123888 49.2663242,40.0394339 47.7005044,42.7664791 C46.6044182,44.811763 43.786079,46.8570468 41.4374114,48.2205694 C39.0887437,46.8570468 36.2704045,44.811763 35.1743183,42.7664791 C33.6085606,40.0394339 33.6085606,37.3123888 35.1743183,35.9488662 C36.7401381,34.5853436 39.8716536,34.5853436 41.4374114,36.64637 Z" id="Fill-1" fill="#E2EFF1"/>
                                <path d="M39.9999647,48.3928971 C36.0553635,46.0382105 32.8746938,43.3588486 31.6182307,41.0143034 C29.5004015,37.3248693 29.5004015,33.8061323 31.3935476,32.1575072 C33.4644852,30.3541259 37.3843933,30.6451599 39.2036876,33.0399196 L39.9999656,34.0880702 L40.7962436,33.0399196 C42.615538,30.6451599 46.535446,30.3541259 48.6063984,32.1575201 C50.4996176,33.8061435 50.4996176,37.3248614 48.3958963,40.9887205 C47.1258106,43.3578159 43.9445894,46.03817 39.9999647,48.3928971 Z" id="Fill-1" stroke="#41A9B9" stroke-width="2"/>
                            </g>
                        </g>
                    </g>
                </g>
            </g>
        </g>
    </g>
</svg>